/* XPM */
static char *result[] = {
/* columns rows colors chars-per-pixel */
"32 32 16 1 ",
"  c black",
". c #2D1F00",
"X c #312200",
"o c #372600",
"O c #3B2A00",
"+ c #3D2B00",
"@ c #3F2C00",
"# c #6D4C00",
"$ c #976A00",
"% c #C48A00",
"& c #D39400",
"* c #D79700",
"= c #F9AF00",
"- c #FAB000",
"; c #FDB200",
": c None",
/* pixels */
"::::::::::::::::::::::::::::::::",
"::::::::::::::::::::::::::::::::",
"::::::::::::::::::::::::::::::::",
"::::::::::::::::::::::::::::::::",
"::::::::::::::::::::::::::::::::",
"::::::::::::::::::::::::::::::::",
"::::::::::::::::::::::::::::::::",
"::::::::::::::::::::::::::::::::",
"::::::::::::::::::::      ::::::",
"::::::::::::::::::::o+@@+o::::::",
":::::::::::::::::: X$%%%%$X ::::",
"::::::::::::::::::X#*;**;*#X::::",
"::::::           X$*;*##*;*$o ::",
"::::::o+@@++@@@+O#*-*$..$*;%+ ::",
":::: o$%%%%%%%%%%*=&#.::.#*%@ ::",
":::: +%;*&==*%%%%*=&#.::.#*%@ ::",
":::: @%*##**#O++O#*-*$..$*;%+ ::",
":::: o$$XX$$o    X$*;*##*;*$o ::",
"::::::oo::oo::::::X#*;**;*#X::::",
"::::::  ::  :::::: X$%%%%$X ::::",
"::::::::::::::::::::o+@@+o::::::",
"::::::::::::::::::::      ::::::",
"::::::::::::::::::::::::::::::::",
"::::::::::::::::::::::::::::::::",
"::::::::::::::::::::::::::::::::",
"::::::::::::::::::::::::::::::::",
"::::::::::::::::::::::::::::::::",
"::::::::::::::::::::::::::::::::",
"::::::::::::::::::::::::::::::::",
"::::::::::::::::::::::::::::::::",
"::::::::::::::::::::::::::::::::",
"::::::::::::::::::::::::::::::::"
};
