/* XPM */
static char *_aaeab9f1ac74f158af1f00e066402e54IJeadDOtNeqd3wX[] = {
/* columns rows colors chars-per-pixel */
"32 32 5 1 ",
"  c #06050D",
". c #333941",
"X c #4A5462",
"o c #8B0000",
"O c #9BABB2",
/* pixels */
"                                ",
" ..XX..XXXoooooooooooXX..XooX.. ",
" .OOOOOoooOOOOooooooooooooooooX ",
" XOoooooooooooooooooooooooooooX ",
" XOooooooooooooooooooooooooooo. ",
" XOoo.ooooooooo......ooooooooo. ",
" Xooo.ooo.oooo.oooooo.ooooooooo ",
" Xooo.......ooooooooo.ooooooooX ",
" oooooooo.oooooooooo.oooooooooX ",
" oooooooo.ooooooo...ooooooooooo ",
" oooooooo.oooooo.oooooooooooooo ",
" oooooooo.ooooo........oooooooo ",
" oooooooooooooooooooooooooooooX ",
" oooooooooooooooooooooooooooooX ",
" ooooooooooooooooooooooooooooo. ",
" ooooooooooooooooooooooooooooX. ",
" ooooooooooooooooooooooooooooX. ",
" ooooooooooooooooooooooooooooO. ",
" ooooooooooooooooooooooooooooO. ",
" XooooooooooooooooooooooooooooX ",
" XooooooooooooooooooooooooooooO ",
" oooooooooooooooooooooooooooooO ",
" oooooooooooooooooooooooooooooo ",
" oooooooooooooooooooooooooooooo ",
" ooooooooooooooooooooooooooooo. ",
" oooooooooooooooooooooooooooo.. ",
" oooooooooooooooooooooooooooo.. ",
" Xoooooooooooooooooooooooooo..X ",
" XoooooooooooooooooooXooooo.XXX ",
" .XoooooooooooooooooOXoooo.XXX  ",
" ..XXXXooXooooooXXXX..XXo.XX    ",
"                                "
};
