/* XPM */
static char *xpm_[] = {
/* columns rows colors chars-per-pixel */
"32 32 8 1 ",
"  c #1D203D",
". c #232C4E",
"X c #29345B",
"o c #2F4168",
"O c #374579",
"+ c #425086",
"@ c #486093",
"# c None",
/* pixels */
"###########@##@@@@##############",
"#############@@++@@@####@#######",
"#######@@###@@+++++@@@##@@######",
"######@+###@@++OOO+++@@##+@#####",
"######@###@@++OoOOO+++@@##+@####",
"#####@+##@@++OoooOOOO++@@##@##@#",
"#####+##@@++OOoooooOOO++@@#+####",
"#####+#@@++OOoooXooooOO++@##@###",
"#######@++OOoooXXXXoooO++@@#####",
"###@###@++OOooXXXXXXooOO+@@#####",
"###@###@++OooXXX..XXooOO++@#####",
"#######++OOooXX. ..XooOO++@##@##",
"####@#@++OOoXX..  .XoooOO+@##@##",
"###@+#@++OooXX.   .XXooOO+@@#@##",
"###@##++OOooX..  ...XooOO++@####",
"###+#@++OOooX..   ..XooOO++@####",
"##@##@++OOooXX.   ..XooOO++@####",
"######++OOooXX.   .XXoOOO++@####",
"######@+OOOoXX... .XXoOOO++@####",
"###@##@+OOOooXX....XXoOOO+@@##@#",
"###+@#@++OOooXXX..XXooOO++@@####",
"######@+++OooXXXXXXXoOO+++@#####",
"#######@++OOooXXXXXooO+++@@##@##",
"#######@@++OOoooXooooO++@@##@###",
"####@###@++OOooooooOOO+@@###@###",
"#####@##@@+OOOOooOOO+++@###@+###",
"#####@##@@++OOOOOOOO+++@###+####",
"#####@###@++++OOOO+++@@@##@+####",
"#####+####@+++OOOO+++@####@#####",
"#####+@###@++++O++++@@##########",
"######+@###@@++++@@#############",
"#############@@@@####@##########"
};
