/* XPM */
static char *c4fd2e5f9b3445649701bcf80189423c6iaFuFrSiK36DWWt[] = {
/* columns rows colors chars-per-pixel */
"32 32 17 1 ",
"  c None",
". c black",
"X c #1B1B1B",
"o c #1B262F",
"O c #322B28",
"+ c #5D2C28",
"@ c #424C6E",
"# c #B74E2F",
"$ c #BF6F4A",
"% c #DE8E47",
"& c #ECB364",
"* c #657392",
"= c #767EA1",
"- c #899FB4",
"; c #92A1B9",
": c #FBF4EE",
"> c white",
/* pixels */
"                                ",
"           ..........           ",
"         ..@@@***@***..         ",
"        .@@@******@***@.        ",
"       .@@@*******@*****.       ",
"       .@@***;;***@***;;.       ",
"      .@@@**;;;;**@***;;*.      ",
"      .@@@**;;;***@****;;.      ",
"      .@@@**;;***@@@***;;.      ",
"      .@@@**;***@%%%@***;.      ",
"      .@@@***@@@%%%%%@@**.      ",
"      .@@@*@@%#...%...#@*.      ",
"       .@@@%%%%%%%%%%%%.@       ",
"      .#@@%%%%...###....        ",
"      .%o@%%&%>.>###>.>.        ",
"      .%%o%%&&>@>%%%>@>...      ",
"       .%#%%&&&%&&&&&%&&&.      ",
"        .#%%&&&&&&&&&&&&&.      ",
"        .#%%&&&&&%...%&&&.      ",
"         .#%%&&&&&&&&&&&.       ",
"          .....OOOOOO...        ",
"           .===------==.        ",
"          .===--:::::-==.       ",
"          .===--------==.       ",
"          .>>X---:::--=>.       ",
"          .>>>X------=>>.       ",
"          .>>>X@@@@@@.>>.       ",
"           ..X@===@==@..        ",
"            .++++..+++.         ",
"            .+$$. .+$$.         ",
"            ....  .....         ",
"                                "
};
