/* XPM */
static char *_874e08c70b34977c96616e4d5fb89f77G9ICJDw0ESTOUH9[] = {
/* columns rows colors chars-per-pixel */
"31 32 17 1 ",
"  c None",
". c black",
"X c #020000",
"o c #030000",
"O c #010303",
"+ c #040000",
"@ c #060000",
"# c #060101",
"$ c #020506",
"% c #090000",
"& c #67110C",
"* c #436F7A",
"= c #8C160E",
"- c #B51D12",
"; c #5EB0C4",
": c #FAFDFE",
"> c white",
/* pixels */
"                               ",
"                               ",
"                               ",
"                               ",
"           ...........         ",
"          .-----------.        ",
"         +-------------.       ",
"        .---------------.      ",
"       .&-----+..........      ",
"       .&----..;;;;>>>>>.      ",
"       .&----.*;;;>>>:>;;$     ",
"      ..&----.**;;;;;;;;;$     ",
"     %-.&----.***;;;;;;;;$     ",
"    .--.&----.***********.     ",
"   %&--.&----..*********..     ",
"   %&--.&-----+.*******..      ",
"   %&==.&------..........      ",
"   %&==.&=--------------.      ",
"   %&==.&==-------------.      ",
"   %&==.&===------------.      ",
"   %&==.&===------------.      ",
"   %&==.&====-----------.      ",
"   %&==.&=======------==.      ",
"   %&&=.&===============.      ",
"    .&&.&=============&=.      ",
"     ...&======&&&&&&&.=.      ",
"       .&======.......==.      ",
"       .&======.  .&====.      ",
"       .&======.  .&====.      ",
"       .&&====&.  .&&==&%      ",
"        .+&&&&+    .&&&.       ",
"          ....      ...        "
};
