/* XPM */
static char *_404ca19e1524970fa5ede4870ab582dYUgkQETSuUEpGTSB[] = {
/* columns rows colors chars-per-pixel */
"32 32 4 1 ",
"  c #000080",
". c #FF69B4",
"X c #00008B",
"o c #9A9079",
/* pixels */
"XXXXXXXXo.oXXXXXXX.oXXXXXXXXX.XX",
"XXXXXXXo . XXXXXXX. oXXXXXXXX.XX",
"XXXoooo ...ooXXXXo.. oooXXXXo.oX",
"ooo    .XXX  oooo ...   oooo . o",
"   .XXXXXXXX......XXXX..    ... ",
"X..XXXXXXXXXXXX..XXXXXXX...XXXXX",
"XX.oXXXXXXXXXXXX.XXXXXXXX.XXXXXX",
"Xo. oooXXXXXXXXo.oXXXXXXo.XXXXXX",
"o ..   oooooooo . oooooo .oXXXXX",
" .................      .. ooooo",
"...XXXX...XXXX....XXXX.....     ",
"XXXXXXXX.XXXXXX..XXXXXX..XXX...X",
"XXXXXXXX.XXXXXXX.XXXXXX.XXXXX.XX",
"XXXXXXXo.XXXXXXX.oXXXXo.XXXXX.XX",
"XXXXooo .oXXXXXo. oooo .oXXXo.oX",
"oooo   .. ooooo ..    .. ooo . o",
"    .XXXX..   ..XXXX........... ",
"..XXXXXXXX..XXXXXXXXX..XXXXXXX..",
".XXXXXXXXX.XXXXXXXXXX.XXXXXXXXXX",
".XXXXXXXXX.XXXXXXXXXo.XXXXXXXXXX",
".oXXXXXXXo.oXXXXXXXo .oXXXXXXXXX",
". ooooooo . ooooooo .. ooXXXXXoo",
".......................  ooooo  ",
".....XXXXXXX....XXXXXX...     ..",
"..XXXXXXXXXXX.XXXXXXXXX..XXXXX..",
".XXXXXXXXXXXX.XXXXXXXXX.XXXXXXX.",
".oXXXXXXXXXXX.XXXXXXXXo.XXXXXXXX",
". ooooooXXXXo.oXXXXooo .oXXXXXXX",
"..      oooo . oooo   .. ooXXXXo",
"....XXXX.................  oooo ",
"...XXXXXX..XXXXXX...XXXX........",
"XXXXXXXXX.XXXXXXXX.XXXXXXXXX...X"
};
