/* XPM */
static char *f2678ed1ef4949ea9e24eb16174d0c312334cZyZsOsLKbyB[] = {
/* columns rows colors chars-per-pixel */
"32 32 2 1 ",
"  c black",
". c #333941",
/* pixels */
"..............      ............",
"..............      ............",
"..................  ............",
"..................  ............",
"..................  ............",
"..................  ............",
"..................  ............",
"..................  ............",
"..................  ............",
"..................  ............",
"..................  ............",
"..................  ............",
"                                ",
"                                ",
"                                ",
"                                ",
"                ........    ....",
"                ........    ....",
"..  ....................    ....",
"..  ....................    ....",
"..  ....................    ....",
"..  ....................    ....",
"..  ....................    ....",
"..  ....................    ....",
"..  ....................    ....",
"..  ....................    ....",
"..  ....................    ....",
"..  ....................    ....",
"..  ....................      ..",
"..  ....................      ..",
"                                ",
"                                "
};
